<svg width="492" height="487" viewBox="0 0 492 487" fill="none" xmlns="http://www.w3.org/2000/svg">
<g clip-path="url(#clip0)">
<path d="M418.941 108.538C416.661 106.921 414.088 105.237 415.308 104.841C418.941 107.02 422.707 109.264 426.313 111.575C427.613 111.245 424.855 109.429 422.521 107.845L422.627 107.878C417.589 105.105 412.762 102.728 409.898 102.365L410.004 102.398C408.652 102.794 404.701 100.781 401.2 99.1301C399.715 97.9748 398.522 97.0175 396.639 95.532C396.003 95.7961 395.631 95.9611 395.26 96.1262L395.366 96.1592C390.513 94.1456 384.494 90.1843 379.985 88.9299C379.773 88.8639 378.606 88.1707 378.368 87.9396C376.989 86.6192 374.788 85.6289 372.587 84.4736C369.882 83.0871 367.23 81.5026 364.552 80.0502C360.574 77.8715 356.251 75.1977 352.698 73.6792C345.909 70.7083 339.279 67.3412 332.517 63.7431C326.709 60.6732 321.459 58.1314 318.568 58.0984C317.773 58.0984 316.447 57.7023 315.359 57.4712L315.466 57.5042C316.818 59.6829 319.284 59.2537 320.345 60.5742C322.97 62.5548 325.569 64.5684 328.513 66.7801C329.176 68.1995 326.338 68.2985 333.525 72.5239C332.093 72.1607 330.899 71.8637 329.733 71.5666C330.74 72.3258 331.138 72.7219 331.642 73.019C332.491 73.5142 333.604 74.1414 334.32 74.4054C343.787 77.9375 354.262 83.3512 364.525 88.4018C366.912 89.5901 371.075 91.8348 371.473 92.363C373.144 94.5417 376.591 94.9048 379.163 96.9184C379.482 97.1825 380.489 98.0408 381.205 98.767C385.872 103.553 387.384 104.478 396.904 109.198C402.951 112.268 409.103 115.437 415.123 119.068C422.654 123.624 430.159 128.674 437.425 133.923C441.084 136.564 444.744 139.006 448.297 141.878C451.639 144.618 454.9 147.688 457.977 150.824C458.984 153.267 460.019 155.842 460.655 158.053C461.132 159.77 462.776 162.378 464.765 165.415C466.701 168.386 468.77 171.72 470.44 174.724C476.354 184.825 479.908 197.27 480.703 210.705C481.207 218.099 481.048 225.592 480.385 232.987C479.298 244.177 476.99 255.5 472.35 265.04C471.819 266.096 471.289 267.746 470.706 269.067C471.872 267.317 472.933 265.469 474.126 263.191C472.217 269.034 471.209 273.589 466.436 279.795C466.913 278.376 468.398 275.933 469.459 273.589C470.546 271.278 471.289 269.166 470.759 268.902C466.701 277.649 460.947 284.714 453.654 289.5C446.441 294.353 438.273 297.357 429.867 299.898C426.181 300.988 422.415 302.605 418.623 303.86C414.725 305.114 410.827 306.368 406.875 307.392C400.458 309.207 394.12 311.188 387.755 313.102C381.338 314.852 374.92 316.503 368.397 317.856C366.832 318.186 364.976 318.714 363.464 319.143C357.338 321.058 352.008 321.949 347.314 321.982L347.447 321.916C346.28 322.378 344.954 323.138 343.973 323.303C332.544 325.217 321.512 327.858 310.533 330.598C309.897 330.73 309.207 330.895 308.544 331.027H308.597C303.718 330.994 298.202 332.05 292.368 333.437L292.5 333.371C284.996 334.658 277.491 335.945 269.96 337.266C266.433 337.893 265.584 337.563 264.258 337.299H264.364C262.322 337.926 260.386 338.619 258.185 339.214C255.772 339.841 252.961 340.534 250.575 340.864C242.964 341.92 237.793 343.604 232.993 345.717C231.402 346.41 228.405 347.301 226.124 347.73C217.612 349.348 209.099 350.668 200.587 352.319L200.693 352.286C200.136 352.484 199.579 352.715 198.996 352.847C192.446 354.365 185.843 355.653 179.345 357.336C170.064 359.746 160.782 362.057 151.554 364.796C148.319 365.688 144.977 366.381 141.689 367.107C132.461 369.253 123.153 371.894 114.11 375.129C108.541 377.307 103.29 379.189 97.6416 380.938C92.4174 382.424 86.7955 384.57 82.1282 386.616C76.5593 389.191 71.7329 391.436 65.6867 393.581C62.9287 394.539 59.4548 396.42 56.3521 397.972C53.2494 399.424 48.3965 402.23 47.4949 402.395C44.2861 402.857 42.1912 405.894 39.6189 407.149C38.399 407.71 36.6222 409.129 35.2433 409.921C33.8113 410.846 32.5119 411.473 30.8942 412.529C29.0114 415.038 27.3938 417.481 25.7231 420.089C25.2192 420.848 24.5032 421.904 23.6546 422.927C16.6537 431.015 10.7931 440.555 6.31146 449.336C3.76568 454.32 1.96241 459.734 0.928182 466.072C0.0795865 471.089 -0.1856 476.272 0.132624 481.455C1.27292 485.02 2.46626 486.802 3.28834 486.472C3.71264 486.307 4.0839 485.614 4.3756 484.359C4.53472 483.732 4.66731 482.973 4.77338 482.049C4.95901 481.125 5.11812 480.068 5.27724 478.847L5.25072 478.946C5.19768 478.154 5.25072 477.361 5.27724 476.569L5.30376 476.8C5.30376 475.711 5.11812 474.555 5.25072 473.565C6.55013 459.107 12.6229 445.605 20.7111 435.009L20.658 435.141C23.4425 430.124 26.5982 428.638 29.913 425.238C31.955 424.644 35.535 421.277 39.062 418.9L38.9559 418.933C42.4298 416.986 45.4264 414.279 48.8473 412.232C57.1477 407.314 65.9519 403.253 74.9682 399.556C75.7903 399.226 76.6654 399.094 77.4874 398.896H77.4079C84.0641 396.189 90.6407 393.284 98.0659 390.478C100.691 389.95 104.245 389.191 107.48 388.63C110.874 388.036 114.216 386.979 118.379 385.626C126.626 383.249 134.635 380.74 142.485 377.902C143.651 377.505 145.11 377.043 146.277 376.812C154.63 375.063 163.037 372.851 171.522 370.936L184.251 367.932C188.521 367.041 192.764 366.183 197.007 365.325C203.292 364.07 209.709 362.75 215.994 361.396C224.454 359.515 232.754 357.27 241.452 356.379C246.066 355.884 249.965 354.662 253.704 353.408C255.056 352.979 256.621 352.55 257.867 352.187C259.617 352.154 260.917 352.154 262.614 352.154C265.743 351.097 268.687 350.074 273.301 349.348C280.328 348.258 287.541 346.674 294.648 345.452C303.983 343.802 313.265 342.184 322.334 339.742C325.649 338.817 329.892 337.662 332.835 337.299C341.586 336.342 349.754 333.734 358.161 331.786C359.036 332.083 359.911 332.314 363.093 331.555C371.261 329.542 379.508 327.396 387.517 324.986L387.384 325.052C389.293 324.524 391.76 323.501 392.953 323.336C395.87 322.939 397.62 322.642 400.246 321.19C401.2 320.662 404.78 319.737 406.928 319.275C411.861 318.285 416.634 317.163 421.116 316.073C423.9 314.885 426.419 313.598 429.071 312.739C435.94 310.561 442.941 308.25 450.127 304.916C457.234 301.549 464.553 296.861 470.679 289.698C473.49 286.43 476.168 283.096 478.343 279.201C480.411 275.504 481.976 271.444 483.461 267.416C484.813 263.719 486.086 259.956 487.147 256.193L487.2 256.061C486.829 256.82 486.431 257.579 486.007 258.437C487.333 252.067 488.181 251.604 489.056 248.699C489.348 242.361 489.348 242.097 491.072 237.245L491.019 237.377C491.045 235.759 490.992 234.142 490.939 232.26C492.477 221.994 492.371 211.002 490.488 201C489.905 197.831 489.507 195.553 488.95 192.516C486.352 179.312 481.419 165.976 473.676 156.337C469.883 151.616 468.823 149.207 466.94 146.104C464.474 143.991 462.405 143.232 458.719 138.379L458.799 138.511C454.874 133.626 450.392 130.952 446.043 127.75L446.149 127.816C444.505 126.694 442.41 125.472 441.27 124.482C437.504 121.214 434.03 118.21 430.424 115.173L430.556 115.239L421.116 109.132C418.968 107.779 418.464 107.746 418.835 108.439L418.941 108.538ZM467.444 285.836L467.073 286.298C466.516 287.057 465.932 287.85 466.834 286.628C465.773 287.883 466.463 287.057 467.152 286.232L467.444 285.836ZM399.927 314.159L398.681 314.72L394.544 317.229C392.343 317.922 390.169 318.714 387.967 319.275C382.372 320.629 376.75 321.685 371.181 323.534C369.776 323.996 367.681 324.491 366.302 324.689C360.468 325.349 355.323 326.736 349.409 329.244C348.11 329.013 347.129 328.848 346.121 328.65C342.647 330.4 338.563 331.522 332.199 332.149C336.309 330.631 340.526 329.641 344.53 328.551C344.795 328.485 345.485 328.683 345.962 328.749C352.008 326.901 358.267 325.382 364.711 323.996C367.999 323.27 371.367 322.279 374.576 321.355C382.054 319.11 389.055 317.427 394.65 317.295C394.438 316.635 394.014 316.007 398.761 314.819L399.927 314.159ZM414.778 312.013C416.422 310.792 417.218 310.198 418.464 309.273C420.135 309.174 421.328 309.075 422.521 309.009C423.025 308.745 423.476 308.514 424.059 308.25C424.563 308.052 425.2 307.887 425.757 307.689C425.279 307.986 424.934 308.283 424.298 308.58C423.98 308.712 423.184 308.844 422.601 308.943C420.559 309.735 418.543 310.528 414.778 312.013ZM313.397 335.747L325.834 332.578C325.914 332.413 325.887 332.248 326.153 332.083C326.365 331.918 326.895 331.72 327.293 331.555C327.372 331.72 327.691 331.852 327.479 332.05C327.346 332.182 326.338 332.413 325.728 332.578C326.55 332.644 327.346 332.711 328.831 332.843C324.508 333.899 320.796 334.889 317.004 335.648C315.943 335.88 314.697 335.681 313.53 335.681C310.109 336.54 306.582 337.794 303.506 337.398L298.202 338.751L297.963 338.421L303.4 337.464L307.59 335.846L307.457 335.879C310.401 335.384 312.283 335.384 313.397 335.747ZM349.728 324.194C348.64 324.788 347.129 325.646 345.617 326.472L343.84 326.571C344.636 325.547 344.636 325.547 349.728 324.194ZM196.37 357.204C196.211 357.204 196.874 356.874 197.166 356.676L201.356 356.412L199.579 357.237C198.492 357.237 197.325 357.27 196.37 357.204ZM482.056 207.932L482.215 206.876C482.533 208.493 482.719 210.111 482.957 211.761C482.904 212.124 482.825 212.454 482.745 212.817C482.559 211.167 482.294 209.549 482.056 207.932ZM457.446 294.254C457.897 293.923 458.427 293.725 458.905 293.428L457.552 294.782L456.465 295.178C456.783 294.881 457.102 294.485 457.446 294.254ZM430.053 306.599C430.503 306.401 430.954 306.203 431.432 305.972C431.564 305.906 431.882 305.906 432.121 305.873L430.715 306.533L430.053 306.599ZM185.869 360.043L186.108 360.208C185.79 360.274 185.471 360.373 185.18 360.439C185.074 360.472 185.047 360.34 184.994 360.307L185.869 360.043ZM227.768 351.361C227.981 351.361 228.007 351.427 228.087 351.493C227.795 351.559 227.397 351.691 227.212 351.691C227.026 351.691 226.999 351.592 226.92 351.559C227.238 351.493 227.636 351.361 227.768 351.361Z" fill="#3B3B3B"/>
<path d="M305.176 52.9788C308.571 55.3555 311.594 57.5012 313.503 59.8119C311.673 58.7556 310.666 58.0953 309.631 57.4682L309.738 57.5012C310.109 58.1284 310.639 58.8216 310.851 59.3167C311.063 59.8449 311.249 60.34 310.931 60.5381C310.48 60.8352 306.82 59.1847 305.123 57.7983C304.089 56.94 303.347 55.8176 303.744 55.7186C305.15 55.3885 305.15 54.1671 305.282 53.0118L305.176 52.9788Z" fill="#3B3B3B"/>
<path d="M288.655 42.0211C291.572 45.3882 293.243 45.5532 295.231 46.5436C296.001 47.4678 296.61 48.1941 297.22 48.8873L297.114 48.7882C294.33 47.963 292.712 47.5339 290.829 46.2465C288.92 44.9921 286.639 43.0445 282.662 39.0172C282.98 38.0929 284.624 38.7861 288.602 41.9551L288.655 42.0211Z" fill="#3B3B3B"/>
<path d="M276.907 39.9392C276.801 39.378 276.695 38.8498 276.562 38.1566C282.264 43.6363 287.833 47.9937 294.383 52.45C293.455 52.5491 291.996 51.6578 290.458 50.5685C288.947 49.4131 287.382 48.0267 286.136 47.2014C283.245 45.1548 280.275 42.8111 276.907 39.9392Z" fill="#3B3B3B"/>
<path d="M323.13 64.5654C322.891 65.6547 319.656 64.4664 315.837 62.8489C317.004 62.1887 317.004 62.2217 323.209 64.6314L323.13 64.5654Z" fill="#3B3B3B"/>
<path d="M259.644 23.2698C259.723 23.0387 259.537 22.3455 259.935 22.7086C260.439 23.2038 261.367 24.5572 262.11 25.5145C261.924 25.6135 261.977 26.1087 261.526 25.7455C261.182 25.4485 260.253 23.996 259.564 23.0717L259.644 23.2698Z" fill="#3B3B3B"/>
<path d="M284.201 43.8017C282.716 42.4813 281.257 41.0949 279.852 39.6424L280.09 39.5104C281.496 40.9628 282.954 42.3493 284.439 43.6697L284.201 43.8017Z" fill="#3B3B3B"/>
<path d="M481.101 157.359C480.544 156.699 480.013 156.105 479.404 155.379C479.297 155.247 478.608 153.827 478.635 153.893C479.059 154.223 479.563 154.785 480.067 155.28C480.385 155.874 480.703 156.435 481.101 157.359Z" fill="#3B3B3B"/>
<path d="M476.858 148.381L477.707 149.899L476.328 148.546C476.168 148.15 475.797 147.49 475.877 147.457C475.983 147.457 476.54 148.051 476.858 148.381Z" fill="#3B3B3B"/>
<path d="M256.78 11.0547C256.913 11.0547 256.966 10.8236 257.205 11.1537C257.549 11.6158 258.053 12.4411 258.478 13.1673C258.504 13.2003 258.743 13.9596 258.716 13.9265C258.451 13.7285 258.186 13.5634 257.815 13.0353C257.576 12.7052 257.099 11.6819 256.754 10.9556L256.78 11.0547Z" fill="#3B3B3B"/>
<path d="M85.2843 368.196C85.0191 368.196 84.4622 368.262 84.5948 368.13C84.7274 367.998 85.4169 367.668 85.8942 367.404C86.1594 367.404 86.7693 367.305 86.6367 367.437C86.4511 367.602 85.7351 367.932 85.2843 368.196Z" fill="#3B3B3B"/>
<path d="M13.604 434.082C13.3388 434.412 13.0471 434.775 12.7554 435.138C12.9675 434.643 13.1532 434.181 13.4449 433.653C13.6305 433.323 14.0017 432.927 14.32 432.596C14.0548 433.092 13.8161 433.587 13.604 434.082Z" fill="#3B3B3B"/>
<path d="M20.5518 425.073C20.7109 424.842 20.9761 424.445 21.0291 424.412C21.2943 424.214 21.5329 424.049 21.7716 423.917C21.6125 424.148 21.3473 424.544 21.2943 424.577C21.0026 424.743 20.7904 424.908 20.5518 425.073Z" fill="#3B3B3B"/>
<path d="M490.648 247.804C490.648 247.606 490.595 247.474 490.648 247.21C490.674 246.946 490.807 246.517 490.886 246.154L490.913 247.045L490.648 247.804Z" fill="#3B3B3B"/>
<path d="M226.602 344.725C227.292 344.428 227.901 344.164 228.511 343.9C228.856 343.933 229.519 343.933 229.466 344.032C229.387 344.164 228.856 344.428 228.326 344.56C228.034 344.659 227.398 344.659 226.602 344.725Z" fill="#3B3B3B"/>
<path d="M291.307 42.5809C290.697 42.6469 292.686 45.1887 288.681 42.0197L288.628 41.9537L291.413 42.6799L291.307 42.5809Z" fill="#3B3B3B"/>
<path d="M297.221 48.8866L298.732 49.4147L299.448 50.174L297.115 48.7875L297.221 48.8866Z" fill="#3B3B3B"/>
<path d="M276.033 31.8199C275.82 31.6218 275.423 31.2917 275.396 31.2587C275.157 30.8296 274.998 30.4665 274.786 30.1034C274.998 30.3344 275.396 30.6645 275.423 30.7306C275.635 31.1267 275.847 31.4568 276.033 31.8199Z" fill="#3B3B3B"/>
<path d="M343.947 83.1858C343.682 83.0538 343.311 82.9217 343.152 82.8227C342.992 82.7237 343.019 82.6246 342.939 82.5256C343.205 82.6576 343.576 82.7897 343.735 82.8887C343.921 82.9878 343.894 83.0868 343.947 83.1858Z" fill="#3B3B3B"/>
<path d="M255.613 14.3241C255.772 14.6542 256.037 15.2814 256.037 15.2814C255.984 15.4465 255.878 15.5125 255.798 15.6115L255.029 13.895L255.613 14.3241Z" fill="#3B3B3B"/>
<path d="M281.734 33.4695L281.15 32.9084L281.548 32.9744C281.707 33.1724 281.946 33.4365 281.972 33.5025C282.026 33.6016 281.84 33.4695 281.734 33.4695Z" fill="#3B3B3B"/>
<path d="M315.863 65.5894L316.314 65.9855L315.625 65.6554L315.863 65.5894Z" fill="#3B3B3B"/>
<path d="M147.656 364.63C148.133 364.465 148.425 364.366 148.69 364.267L148.955 364.399C148.557 364.432 148.186 364.498 147.656 364.63Z" fill="#3B3B3B"/>
<path d="M275.661 33.6665L275.104 32.9733L275.927 33.5344C276.006 33.6995 276.218 33.9966 276.165 34.0296C276.112 34.0296 275.82 33.7985 275.661 33.6665Z" fill="#3B3B3B"/>
<path d="M387.729 88.7948L387.093 88.4647L387.464 88.5307L387.729 88.7948Z" fill="#3B3B3B"/>
<path d="M335.805 64.3672L335.381 64.3342C335.142 64.1691 334.771 63.9381 334.718 63.872C334.665 63.806 334.93 63.839 335.116 63.9051C335.301 64.0041 335.566 64.2022 335.805 64.3672Z" fill="#3B3B3B"/>
<path d="M479.297 149.072L478.952 148.808C478.82 148.577 478.581 148.214 478.555 148.115C478.528 148.049 478.74 148.247 478.873 148.346L479.297 149.072Z" fill="#3B3B3B"/>
<path d="M24.4764 434.776L23.6543 435.436L24.4233 434.875L24.4764 434.776Z" fill="#3B3B3B"/>
<path d="M90.7199 394.968L91.4624 394.737C91.1707 394.902 90.879 395.067 90.5608 395.265C90.5078 395.298 90.1895 395.298 90.0039 395.331L90.7199 394.968Z" fill="#3B3B3B"/>
<path d="M38.9819 418.962C38.8228 419.193 38.6902 419.424 38.6372 419.49C38.6902 419.391 38.9024 419.16 39.088 418.896L38.9819 418.962Z" fill="#3B3B3B"/>
<path d="M387.358 325.05L389.135 324.72L387.49 324.984L387.358 325.05Z" fill="#3B3B3B"/>
<path d="M410.323 100.48L410.456 100.744L409.846 100.348L410.323 100.48Z" fill="#3B3B3B"/>
<path d="M430.556 115.272L429.761 114.414L430.424 115.206L430.556 115.272Z" fill="#3B3B3B"/>
<path d="M458.799 138.543L459.462 138.708L458.693 138.411L458.799 138.543Z" fill="#3B3B3B"/>
<path d="M92.1528 381.366L91.9406 381.597C91.7019 381.663 91.4102 381.762 91.2511 381.795C91.1981 381.795 91.3837 381.663 91.4368 381.564L92.1528 381.366Z" fill="#3B3B3B"/>
<path d="M127.13 368.787L126.945 368.688L127.555 368.556L127.13 368.787Z" fill="#3B3B3B"/>
<path d="M149.326 360.669C149.247 360.735 149.167 360.834 149.087 360.867C148.875 360.933 148.584 360.966 148.478 360.966C148.398 360.966 148.61 360.834 148.69 360.768L149.326 360.669Z" fill="#3B3B3B"/>
<path d="M264.337 337.396C264.523 337.264 264.735 337.132 264.761 337.099C264.708 337.132 264.47 337.264 264.205 337.396H264.337Z" fill="#3B3B3B"/>
<path d="M28.4016 406.817L27.7651 407.247L28.4281 406.619L28.4016 406.817Z" fill="#3B3B3B"/>
<path d="M298.388 47.698L299.555 48.7213C299.342 48.5563 299.051 48.3582 298.918 48.2262C298.732 48.0281 298.653 47.8961 298.547 47.764L298.388 47.698Z" fill="#3B3B3B"/>
<path d="M323.209 64.6638C323.421 64.6638 323.66 64.6638 323.713 64.6638C323.66 64.6638 323.395 64.5978 323.129 64.5648L323.209 64.6638Z" fill="#3B3B3B"/>
<path d="M260.253 5.8064L259.67 4.05685L260.174 5.67436L260.253 5.8064Z" fill="#3B3B3B"/>
<path d="M209.869 339.112L210.426 339.013L210.107 339.178L209.869 339.112Z" fill="#3B3B3B"/>
<path d="M252.643 3.69337L253.253 4.58465C253.2 4.55164 253.147 4.61766 253.068 4.45261C252.935 4.22154 252.776 3.82541 252.617 3.52832L252.643 3.69337Z" fill="#3B3B3B"/>
<path d="M292.686 56.8074L291.996 56.3452L292.182 56.3122L292.686 56.8074Z" fill="#3B3B3B"/>
<path d="M24.4233 434.874L24.4762 434.776L24.4233 434.874Z" fill="#3B3B3B"/>
<path d="M20.6851 435.139L20.7379 435.007L20.6851 435.139Z" fill="#3B3B3B"/>
<path d="M422.653 107.91L422.547 107.877L422.653 107.91Z" fill="#3B3B3B"/>
<path d="M490.992 237.407L491.045 237.275L490.992 237.407Z" fill="#3B3B3B"/>
<path d="M487.173 256.057L487.121 256.188L487.173 256.057Z" fill="#3B3B3B"/>
<path d="M410.005 102.43L409.899 102.397L410.005 102.43Z" fill="#3B3B3B"/>
<path d="M446.493 127.55L446.414 127.451L446.493 127.55Z" fill="#3B3B3B"/>
<path d="M446.415 127.451L446.043 127.781L446.15 127.847L446.494 127.55L446.415 127.451Z" fill="#3B3B3B"/>
<path d="M58.7124 394.371L58.818 394.338L58.7124 394.371Z" fill="#3B3B3B"/>
<path d="M58.818 394.37L58.7124 394.403L58.818 394.37Z" fill="#3B3B3B"/>
<path d="M200.666 352.347L200.56 352.38L200.666 352.347Z" fill="#3B3B3B"/>
<path d="M315.465 57.5365L315.359 57.5037L315.465 57.5365Z" fill="#3B3B3B"/>
<path d="M347.394 321.98L347.262 322.045L347.394 321.98Z" fill="#3B3B3B"/>
<path d="M291.758 42.3811L291.625 42.3154L291.758 42.3811Z" fill="#3B3B3B"/>
<path d="M298.546 47.7628L298.281 47.4987L298.387 47.6967L298.546 47.7628Z" fill="#3B3B3B"/>
<path d="M291.652 42.3154L291.307 42.5794L291.387 42.6785L291.758 42.3814L291.652 42.3154Z" fill="#3B3B3B"/>
<path d="M305.282 53.012L305.176 52.9463L305.282 53.012Z" fill="#3B3B3B"/>
<path d="M260.174 5.6749L260.253 5.8064L260.174 5.6749Z" fill="#3B3B3B"/>
<path d="M271.842 34.2637L271.763 34.1322L271.842 34.2637Z" fill="#3B3B3B"/>
<path d="M271.79 34.1322L271.869 34.2637L271.79 34.1322Z" fill="#3B3B3B"/>
<path d="M288.257 50.8659L288.178 50.7672L288.257 50.8659Z" fill="#3B3B3B"/>
<path d="M256.727 10.9232L256.753 11.0547L256.727 10.9232Z" fill="#3B3B3B"/>
<path d="M288.178 50.7997L288.257 50.8983L288.178 50.7997Z" fill="#3B3B3B"/>
<path d="M252.616 3.4973L252.377 3.13419L252.643 3.69536L252.616 3.4973Z" fill="#3B3B3B"/>
</g>
<defs>
<clipPath id="clip0">
<rect width="492" height="487" fill="white"/>
</clipPath>
</defs>
</svg>
