<svg width="570" height="366" viewBox="0 0 570 366" fill="none" xmlns="http://www.w3.org/2000/svg">
<g clip-path="url(#clip0)">
<path d="M54.4098 182.62C56.3598 180.65 58.4898 178.43 58.2498 179.61C55.3698 182.76 52.4598 186.02 49.6598 189.2C49.4098 190.43 51.5698 188 53.4798 185.99L53.3998 186.09C57.0698 181.68 60.6098 177.5 62.0598 174.88L61.9998 174.97C62.2798 173.68 65.3098 170.26 67.8898 167.19C69.2898 165.96 70.4498 164.94 72.2298 163.38C72.3298 162.76 72.3898 162.39 72.4498 162.02L72.3698 162.12C75.8198 157.84 81.0698 152.64 83.7998 148.48C83.9198 148.3 84.8998 147.25 85.1498 147.05C86.5998 145.84 88.1498 143.85 89.8398 141.82C91.8198 139.3 93.9598 136.88 95.8998 134.29C96.6398 133.35 97.3898 132.38 98.1598 131.4C98.8998 130.4 99.6398 129.39 100.36 128.41C101.08 127.41 101.79 126.44 102.45 125.48C103.08 124.5 103.67 123.55 104.2 122.65C108.24 115.76 112.09 108.71 115.31 101.11C115.97 99.47 116.57 97.85 117.14 96.32C117.73 94.79 118.17 93.31 118.53 91.93C118.9 90.56 119.21 89.3 119.42 88.19C119.63 87.08 119.68 86.1 119.68 85.33C119.66 84.48 119.86 82.98 119.96 81.79L119.94 81.93C118.62 83.83 118.99 86.33 118.16 87.71C116.8 90.8 115.51 93.9 113.76 97.23C113.27 97.66 113.07 97.14 112.58 97.51C112.33 97.69 112.01 98.09 111.54 98.94C111.06 99.78 110.35 101.04 109.42 102.96C109.86 101.46 110.21 100.24 110.56 99.01C109.92 100.11 109.62 100.53 109.36 101.08C108.92 101.99 108.36 103.17 108.1 103.9C104.39 113.8 97.6298 124.17 90.4998 133.7C88.7998 135.89 85.7198 139.72 85.1898 140.02C83.0998 141.4 81.4498 144.63 78.9998 146.85C78.6898 147.11 77.7098 147.98 76.9398 148.57C71.7998 152.4 70.5498 153.71 63.2198 162.07C58.5398 167.4 53.7598 172.8 48.8998 178.22C42.8298 185.02 36.6098 191.94 31.0998 199.32C29.7198 201.2 28.4298 203.1 27.1298 204.99C25.8898 206.92 24.6498 208.85 23.3898 210.81C22.2398 212.68 21.0798 214.57 19.9298 216.46C18.7898 218.36 17.7498 220.31 16.6698 222.21C14.9998 223.85 13.4198 225.75 11.9398 227.2C10.7698 228.28 9.33984 231.03 7.71984 234.38C7.00984 236.05 6.30984 237.84 5.62984 239.62C5.45984 240.07 5.28984 240.51 5.11984 240.95C4.97984 241.4 4.83984 241.85 4.69984 242.3C4.43984 243.19 4.17984 244.07 3.92984 244.91C0.579841 256.5 -0.780159 268.82 0.379841 281.44C0.589841 283.17 0.899841 284.9 1.16984 286.63C1.32984 287.49 1.40984 288.36 1.63984 289.21L2.26984 291.76C2.64984 293.47 3.21984 295.12 3.75984 296.77C4.25984 298.44 4.93984 300.03 5.57984 301.64C7.61984 306.48 10.0098 311.15 12.8498 315.51C13.5098 316.63 14.2698 317.69 15.0098 318.76C15.7598 319.83 16.4498 320.93 17.2598 321.95L19.5998 325.08L22.0698 328.12C22.7798 329.06 24.0498 330.13 25.0698 331.13C24.3998 330.31 23.7298 329.48 23.0398 328.62C22.3898 327.73 21.6998 326.8 20.9698 325.79C21.9998 326.83 22.9298 327.8 23.8998 328.68C24.8798 329.55 25.8398 330.4 26.8498 331.3C28.8798 333.05 31.0798 334.95 33.9998 337.47C33.3998 337.18 32.5398 336.61 31.5898 335.93C30.6198 335.26 29.6498 334.38 28.6798 333.61C26.7398 332.09 25.1998 330.64 24.9598 331.02C26.5898 332.74 28.3898 334.28 30.1298 335.89C31.0198 336.67 31.9498 337.4 32.8598 338.15C33.7698 338.91 34.6798 339.65 35.6398 340.33L38.4798 342.43L41.4198 344.4L42.8898 345.38L44.3998 346.29C45.4098 346.89 46.4098 347.52 47.4398 348.1C55.6698 352.71 64.3998 356.37 73.4798 359.22C75.4598 359.9 77.5498 360.35 79.6298 360.87C81.7298 361.33 83.8398 361.78 85.9498 362.2C90.2598 363.08 94.6298 363.9 99.0098 364.47C106.14 365.4 113.3 365.79 120.46 365.87C124.04 365.89 127.62 365.88 131.2 365.78C134.78 365.63 138.37 365.52 141.98 365.45C143.72 365.38 145.78 365.15 147.44 364.94C154.27 364.15 160.04 363.48 165.16 363.5L165.03 363.53C166.33 363.26 167.79 362.72 168.88 362.58C171.98 362.14 175.07 361.69 178.13 361.2C181.17 360.61 184.2 360.01 187.21 359.38L189.46 358.91L191.69 358.36C193.17 357.99 194.66 357.61 196.14 357.24C197.62 356.86 199.09 356.48 200.56 356.1C202.03 355.71 203.48 355.25 204.94 354.83C205.62 354.64 206.34 354.44 207.05 354.24H207C212.22 353.53 218.07 351.82 224.2 349.86L224.06 349.92L235.87 346.33C239.78 345.04 243.68 343.76 247.59 342.47C251.23 341.19 252.15 341.19 253.56 341.01L253.44 341.04C255.54 340.12 257.51 339.23 259.77 338.29C262.23 337.27 265.11 336.08 267.56 335.25C275.4 332.53 280.63 330.08 285.4 327.44C286.98 326.57 290 325.17 292.33 324.27C301.02 320.91 309.67 317.57 318.34 314.22L318.23 314.28C318.8 314.01 319.34 313.7 319.93 313.46C326.6 310.76 333.29 308.05 339.95 305.35C349.44 301.49 358.91 297.67 368.49 294.05C371.82 292.77 375.34 291.7 378.73 290.57C388.36 287.46 398.15 284.3 407.79 281.19C410.78 280.24 413.68 279.31 416.6 278.46C419.53 277.66 422.48 276.89 425.51 276.15C426.21 275.98 426.92 275.8 427.63 275.63C428.35 275.48 429.07 275.32 429.8 275.16C431.25 274.84 432.71 274.52 434.16 274.2C437.05 273.53 439.88 272.88 442.49 272.28C445.59 271.55 448.48 270.79 451.45 270.18C454.43 269.62 457.46 269.11 460.82 268.7C463.88 268.33 467.87 267.7 471.42 267.22C472.3 267.11 473.31 266.98 474.36 266.84C475.41 266.74 476.48 266.65 477.47 266.56C479.45 266.39 481.11 266.27 481.59 266.34C483.24 266.58 484.82 266.36 486.37 266.15C487.92 265.96 489.43 265.72 490.9 265.77C492.26 265.82 494.49 265.66 496.1 265.66C497.81 265.64 499.25 265.82 501.15 265.95C502.55 265.66 503.91 265.45 505.26 265.23C506.62 265 507.97 264.79 509.37 264.63C510.22 264.53 511.4 264.42 512.67 264.44C517.82 264.6 523.02 265.14 527.97 266.08C532.92 267.04 537.57 268.53 541.67 270.27C546.28 272.35 550.61 274.49 555.16 277.37L557.83 279.14C558.69 279.77 559.52 280.45 560.36 281.1L561.63 282.09L562.81 283.18L565.16 285.39C567.66 287.19 569.39 288.13 569.82 287.61C570.03 287.35 569.92 286.72 569.4 285.65C568.86 284.6 568.04 282.97 566.42 281.13L566.49 281.22L564.76 279.57L564.87 279.66C564.66 279.48 564.45 279.31 564.24 279.13L563.56 278.65C563.11 278.33 562.68 278.01 562.29 277.7C556.69 273.12 550.29 269.64 543.62 267.08C536.95 264.51 530 262.83 523.02 261.74L523.15 261.75C520.25 261.66 517.92 261.25 515.66 260.97C514.53 260.82 513.42 260.62 512.27 260.5C511.12 260.39 509.93 260.29 508.66 260.25C506.43 259.48 501.03 259.46 496.37 259.55L496.49 259.56C494.28 259.5 492.1 259.63 489.94 259.79C487.78 259.97 485.62 260.11 483.46 260.35C478.2 260.84 472.94 261.26 467.72 262.04C465.11 262.41 462.48 262.67 459.89 263.14L452.1 264.46C451.16 264.63 450.2 264.65 449.26 264.77L449.36 264.76C445.57 265.58 441.79 266.39 437.9 267.23C434.04 268.19 430.09 269.18 425.92 270.21C423.04 270.75 419.17 271.51 415.62 272.13C411.89 272.81 408.25 273.86 403.65 275.17C399.18 276.53 394.78 277.93 390.44 279.36C386.14 280.87 381.86 282.36 377.7 284.04C376.46 284.54 374.94 285.12 373.68 285.53C355.98 291.26 338.34 298.58 320.92 305.36C314.47 307.87 307.9 310.5 301.53 313.16C292.91 316.74 284.52 320.45 275.62 323.43C270.89 324.99 266.98 326.84 263.19 328.56C261.83 329.19 260.25 329.85 258.98 330.4C257.18 330.87 255.84 331.24 254.07 331.66C250.92 333.08 247.94 334.46 243.19 336C239.57 337.14 235.93 338.4 232.25 339.6C228.57 340.76 224.88 341.97 221.2 343.05C218.78 343.73 216.36 344.41 213.94 345.09L210.33 346.11L206.71 347.05C204.3 347.69 201.9 348.33 199.51 349.01C197.11 349.62 194.71 350.24 192.33 350.89C188.86 351.9 184.36 352.94 181.28 353.38C172.07 354.75 163.36 356.44 154.36 357.51C153.46 357.34 152.56 357.13 149.18 357.46C146.99 357.66 144.8 357.87 142.61 358.07C140.42 358.23 138.22 358.3 136.03 358.42C133.84 358.52 131.65 358.67 129.47 358.75C127.29 358.8 125.12 358.89 122.97 358.91L123.12 358.89C121.07 358.94 118.36 359.02 117.1 358.87C115.58 358.71 114.36 358.53 113.16 358.45C111.95 358.37 110.75 358.39 109.28 358.47C108.74 358.5 107.52 358.43 106.15 358.31C104.79 358.18 103.28 357.96 102.16 357.8C97.0198 356.99 92.1098 355.96 87.5598 354.75C84.5898 354.28 81.7798 353.93 79.0698 353.16C64.8698 349.32 51.4298 343.02 40.0898 334.04C38.7398 333.04 37.5598 331.85 36.3198 330.75C35.0898 329.63 33.9698 328.4 32.7398 327.26C31.6098 326.14 30.4698 325 29.3198 323.87C28.1898 322.72 27.1198 321.5 26.0398 320.29C25.0798 319.14 24.1998 317.93 23.2898 316.75C22.3998 315.55 21.6098 314.27 20.7598 313.04L20.7198 312.95C20.9898 313.56 21.2598 314.16 21.5698 314.85C20.8098 313.87 20.2298 313.1 19.8198 312.43C19.4298 311.75 19.1498 311.2 18.9398 310.72C18.5198 309.75 18.2798 309.06 17.7998 308.01C16.4098 306.13 15.6198 305.13 15.1498 304.1C14.6898 303.07 14.4298 302.05 13.9898 300.17L14.0198 300.27C13.4498 299.22 12.8798 298.16 12.2098 296.94C11.8698 296.02 11.6598 295.07 11.3998 294.13C11.1498 293.19 10.8698 292.25 10.6298 291.31L10.0098 288.46L9.66984 287L9.44984 285.56C9.28984 284.6 9.13984 283.64 8.98984 282.69C8.82984 281.74 8.62984 280.79 8.57984 279.82C8.42984 277.9 8.14984 276 8.02984 274.11C7.98984 272.93 7.98984 271.89 8.00984 270.87C8.01984 270.36 8.02984 269.85 8.03984 269.32C8.04984 269.06 8.04984 268.79 8.05984 268.51C8.08984 268.24 8.11984 267.95 8.14984 267.66C8.98984 257.52 12.2298 247.72 15.6398 237.96C16.5498 235.57 17.3698 233.95 18.1398 232.62C18.9098 231.29 19.7498 230.3 20.5598 229.07C21.5398 226.39 21.9198 224.33 25.0498 220.1L24.9698 220.2C26.6698 218.05 27.9698 215.84 29.3298 213.69C30.7098 211.56 31.9098 209.35 33.4298 207.27L33.3598 207.38C34.4498 205.8 35.6398 203.77 36.5898 202.7C38.1498 200.94 39.6298 199.22 41.1798 197.6C42.7498 195.98 44.2498 194.38 45.8498 192.78L45.7598 192.9L49.4098 188.7L53.1498 184.55C54.8398 182.68 55.0898 182.23 54.4798 182.49L54.4098 182.62ZM38.1698 336.79L38.5998 337.1C39.2898 337.55 39.9798 338.01 38.8898 337.29C40.0498 338.15 39.2898 337.58 38.5298 337.02L38.1698 336.79ZM107.94 362.56L109.37 362.55C110.98 362.43 112.6 362.22 114.21 362.07C116.62 362.15 119.05 362.14 121.44 362.2C124.49 362.27 127.53 362.32 130.58 362.29C133.63 362.19 136.68 362.04 139.75 361.78C140.53 361.71 141.49 361.67 142.44 361.62C143.39 361.55 144.33 361.5 145.07 361.48C148.19 361.41 151.16 361.23 154.17 360.89C157.16 360.44 160.19 359.86 163.43 359.11C164.81 359.26 165.85 359.37 166.88 359.43C168.78 358.84 170.83 358.32 173.25 357.85C174.46 357.62 175.76 357.4 177.19 357.2C178.61 356.95 180.15 356.71 181.84 356.49C177.44 357.84 172.89 358.59 168.57 359.44C168.3 359.49 167.56 359.4 167.05 359.37C160.48 360.56 153.69 361.53 146.66 361.99C144.87 362.11 143.05 362.34 141.24 362.42C139.43 362.53 137.62 362.64 135.86 362.75C127.62 363.43 119.92 363.22 114.11 362.04C114.19 362.45 114.48 362.95 109.3 362.52L107.94 362.56ZM92.3598 359.29C90.3698 359.39 89.4198 359.37 87.8998 359.39C86.2198 358.81 85.0398 358.37 83.8698 357.9C83.2998 357.82 82.7798 357.77 82.1498 357.65C81.5998 357.55 80.9298 357.38 80.3298 357.21C80.8798 357.28 81.3198 357.27 82.0198 357.38C82.3698 357.44 83.1798 357.72 83.7798 357.9C84.8798 358.11 85.9798 358.34 87.3398 358.54C88.6898 358.73 90.2698 359.05 92.3598 359.29ZM201.79 352.15C197.41 353.39 193 354.5 188.59 355.66C188.49 355.77 188.52 355.86 188.26 356C188.03 356.12 187.46 356.28 187.05 356.42C186.96 356.33 186.62 356.27 186.86 356.13C187 356.05 188.07 355.82 188.73 355.66C187.87 355.69 187.01 355.71 185.42 355.76C186.57 355.5 187.68 355.26 188.77 355.02C189.85 354.74 190.89 354.48 191.92 354.21C193.98 353.7 195.97 353.2 197.97 352.71C199.1 352.44 200.42 352.41 201.64 352.22C205.23 351.16 208.94 349.85 212.19 349.58L217.72 347.78L217.98 347.94L212.29 349.53C210.83 350.11 209.36 350.64 207.9 351.19L208.03 351.14C204.95 351.91 202.97 352.21 201.79 352.15ZM162.68 362.16C163.89 361.77 165.58 361.32 167.24 360.72L169.14 360.6C168.69 360.94 168.47 361.1 167.67 361.31C167.27 361.41 166.72 361.53 165.93 361.68C165.12 361.8 164.07 361.96 162.68 362.16ZM322.28 310.11C322.43 310.07 321.77 310.46 321.49 310.66L317.16 311.99L318.94 310.99C320.07 310.68 321.26 310.35 322.28 310.11ZM1.41984 278.86L1.55984 277.93L1.84984 280.15C1.94984 280.89 2.01984 281.63 2.20984 282.35L2.14984 283.29C2.00984 282.56 1.78984 281.83 1.70984 281.09L1.41984 278.86ZM47.9898 343.87C47.5298 343.59 47.1198 343.24 46.6798 342.93L48.2598 343.66L49.1198 344.41C48.7498 344.24 48.3398 344.09 47.9898 343.87ZM75.8798 355.82C75.3798 355.71 74.8998 355.61 74.3698 355.47C74.2198 355.43 73.9198 355.28 73.6898 355.19L75.2298 355.54L75.8798 355.82ZM332.94 305.48L332.68 305.44C333 305.31 333.33 305.15 333.62 305.05C333.74 305.01 333.76 305.07 333.83 305.08L332.94 305.48ZM290.25 322.57C290.04 322.63 290 322.58 289.89 322.58C290.19 322.45 290.59 322.26 290.77 322.21C290.98 322.15 290.99 322.21 291.08 322.21C290.8 322.34 290.4 322.53 290.25 322.57Z" fill="#3B3B3B"/>
<path d="M121.51 69.94C120.79 74.17 119.64 77.86 118.44 80.37C118.93 78.23 119.21 77.02 119.48 75.81L119.46 75.94C119.13 76.49 118.76 77.19 118.47 77.53C118.18 77.87 117.88 78.17 117.72 77.91C117.6 77.71 117.69 76.59 117.89 75.27C117.99 74.61 118.11 73.89 118.25 73.22C118.36 72.53 118.48 71.88 118.61 71.36C118.93 70.08 119.47 69 119.6 69.37C120.05 70.68 120.78 70.3 121.49 70.07L121.51 69.94Z" fill="#3B3B3B"/>
<path d="M122.78 49.47C122.23 53.74 122.65 55.35 122.74 57.7C122.47 58.83 122.3 59.71 122.06 60.57L122.1 60.44C121.66 57.41 121.41 55.72 121.44 53.41C121.4 52.25 121.4 50.94 121.46 49.24C121.49 48.39 121.53 47.43 121.57 46.35C121.57 45.27 121.57 44.05 121.56 42.68C121.86 42.56 122.13 42.94 122.36 44C122.48 44.53 122.58 45.23 122.68 46.12C122.78 47.01 122.78 48.09 122.8 49.39L122.78 49.47Z" fill="#3B3B3B"/>
<path d="M118.26 38.59C118.44 38.2 118.61 37.83 118.82 37.36C118.91 38.27 119.01 39.18 119.1 40.08C119.15 40.98 119.2 41.88 119.25 42.77C119.33 44.56 119.5 46.33 119.47 48.12C119.47 49.91 119.51 51.72 119.48 53.56C119.4 55.4 119.31 57.28 119.22 59.23C118.5 57.56 119.31 52.53 119.1 49.64C119.04 47.93 118.99 46.19 118.8 44.36C118.73 43.45 118.65 42.51 118.57 41.55C118.51 40.6 118.42 39.61 118.26 38.59Z" fill="#3B3B3B"/>
<path d="M115.55 91.2699C115.21 91.2299 115.25 90.3299 115.51 88.9099C115.64 88.1999 115.83 87.3699 116.04 86.4399C116.22 85.5099 116.42 84.4899 116.62 83.4299C116.84 83.9699 116.96 84.2399 116.85 85.2399C116.77 86.2499 116.35 87.9499 115.5 91.3799L115.55 91.2699Z" fill="#3B3B3B"/>
<path d="M112.93 18.0799C113.03 17.9599 113.08 17.4099 113.26 17.8299C113.5 18.3699 113.85 19.6799 114.15 20.6599C114 20.6499 113.9 20.9899 113.68 20.5299C113.51 20.1899 113.17 18.8199 112.91 17.9099L112.93 18.0799Z" fill="#3B3B3B"/>
<path d="M120.01 46.4L119.9 40.7L120.08 40.82L120.19 46.54L120.01 46.4Z" fill="#3B3B3B"/>
<path d="M17.6499 243.88C17.7999 243.24 17.9299 242.66 18.1199 241.95C18.1499 241.83 18.6799 240.81 18.6699 240.86C18.6299 241.28 18.5099 241.86 18.4199 242.39C18.1999 242.82 17.9799 243.24 17.6499 243.88Z" fill="#3B3B3B"/>
<path d="M21.2496 237.76L20.5996 238.86L20.9996 237.43C21.1796 237.19 21.4696 236.72 21.5096 236.77C21.5496 236.82 21.3496 237.4 21.2496 237.76Z" fill="#3B3B3B"/>
<path d="M112.66 8.45999C112.76 8.50999 112.82 8.33999 112.98 8.64999C113.2 9.07999 113.5 9.85999 113.77 10.53C113.78 10.56 113.9 11.21 113.87 11.17C113.69 10.94 113.5 10.75 113.26 10.22C113.11 9.88999 112.86 8.99999 112.65 8.35999L112.66 8.45999Z" fill="#3B3B3B"/>
<path d="M437.05 283.7C437.31 283.7 437.87 283.65 437.75 283.73C437.61 283.82 436.86 284.02 436.38 284.18C436.1 284.18 435.5 284.24 435.63 284.17C435.81 284.06 436.55 283.86 437.05 283.7Z" fill="#3B3B3B"/>
<path d="M526.86 266.84C527.23 266.92 527.66 267.06 528.09 267.19C527.62 267.14 527.19 267.13 526.66 267.07C526.32 267.03 525.84 266.87 525.42 266.77C525.9 266.79 526.37 266.82 526.86 266.84Z" fill="#3B3B3B"/>
<path d="M516.3 265.36C516.04 265.36 515.59 265.36 515.55 265.35C515.22 265.28 514.96 265.2 514.69 265.13C514.95 265.13 515.4 265.13 515.44 265.14C515.78 265.21 516.03 265.29 516.3 265.36Z" fill="#3B3B3B"/>
<path d="M18.2296 306.57C18.1396 306.47 18.0596 306.42 17.9496 306.25C17.8496 306.09 17.7196 305.78 17.5996 305.54L18.0296 306.02L18.2296 306.57Z" fill="#3B3B3B"/>
<path d="M292.08 326.27C291.4 326.64 290.79 326.97 290.18 327.3C289.81 327.38 289.12 327.57 289.16 327.5C289.22 327.4 289.77 327.09 290.29 326.86C290.62 326.7 291.27 326.53 292.08 326.27Z" fill="#3B3B3B"/>
<path d="M123.52 52.18C123.25 51.63 122.72 54.67 122.78 49.47L122.79 49.39L123.5 52.31L123.52 52.18Z" fill="#3B3B3B"/>
<path d="M122.06 60.5699L122.16 62.2599L121.89 63.2399L122.09 60.4299L122.06 60.5699Z" fill="#3B3B3B"/>
<path d="M121.14 33.23C121.1 32.94 120.98 32.45 120.98 32.39C120.98 31.96 121 31.6 121.02 31.23C121.08 31.53 121.19 32.03 121.19 32.08C121.19 32.52 121.18 32.86 121.14 33.23Z" fill="#3B3B3B"/>
<path d="M100.47 113.78C100.62 113.51 100.79 113.15 100.9 112.98C101.01 112.81 101.07 112.84 101.15 112.78C101 113.05 100.83 113.41 100.72 113.58C100.6 113.74 100.55 113.72 100.47 113.78Z" fill="#3B3B3B"/>
<path d="M111.44 10.55C111.48 10.69 111.53 10.89 111.58 11.05C111.63 11.21 111.66 11.34 111.66 11.35C111.6 11.46 111.52 11.47 111.44 11.51L111.06 10.11L111.44 10.55Z" fill="#3B3B3B"/>
<path d="M123.62 38.7499L123.55 37.9299L123.74 38.3099C123.74 38.5499 123.75 38.9099 123.73 38.9799C123.72 39.0699 123.66 38.8399 123.62 38.7499Z" fill="#3B3B3B"/>
<path d="M114.91 83.99L114.69 84.52L114.87 83.76L114.91 83.99Z" fill="#3B3B3B"/>
<path d="M372.54 293.36C372.04 293.57 371.75 293.68 371.47 293.8L371.2 293.78C371.59 293.66 371.97 293.54 372.54 293.36Z" fill="#3B3B3B"/>
<path d="M120.17 34.08L120.15 33.24L120.38 34.19C120.36 34.36 120.35 34.68 120.31 34.67C120.28 34.64 120.22 34.28 120.17 34.08Z" fill="#3B3B3B"/>
<path d="M80.54 155.8L81.04 155.24L80.83 155.59L80.54 155.8Z" fill="#3B3B3B"/>
<path d="M114.42 104.62L114.52 104.15C114.66 103.88 114.87 103.45 114.93 103.4C114.99 103.34 114.93 103.62 114.84 103.83C114.75 104.04 114.57 104.35 114.42 104.62Z" fill="#3B3B3B"/>
<path d="M21.5498 239.74L21.6098 239.41C21.7098 239.23 21.8398 238.97 21.8998 238.91C21.9398 238.87 21.8698 239.1 21.8498 239.2L21.5498 239.74Z" fill="#3B3B3B"/>
<path d="M519.94 259.4L521.13 259.71L520.08 259.4H519.94Z" fill="#3B3B3B"/>
<path d="M434.39 267.14L433.54 267.29C433.88 267.18 434.2 267.07 434.57 266.94C434.62 266.92 434.97 266.9 435.18 266.88L434.39 267.14Z" fill="#3B3B3B"/>
<path d="M496.5 259.53C496.76 259.46 497.01 259.38 497.11 259.36C497 259.38 496.69 259.45 496.38 259.52L496.5 259.53Z" fill="#3B3B3B"/>
<path d="M123.12 358.87L121.24 358.77L122.97 358.88L123.12 358.87Z" fill="#3B3B3B"/>
<path d="M63.1299 175.46L62.8999 175.55L63.4199 175.03L63.1299 175.46Z" fill="#3B3B3B"/>
<path d="M45.7598 192.92L46.5998 192.22L45.8498 192.79L45.7598 192.92Z" fill="#3B3B3B"/>
<path d="M24.9696 220.22L24.8696 220.86C24.9296 220.61 24.9796 220.36 25.0596 220.12L24.9696 220.22Z" fill="#3B3B3B"/>
<path d="M431.31 275.63L431.57 275.48C431.83 275.43 432.14 275.37 432.32 275.35C432.39 275.34 432.18 275.44 432.09 275.49L431.31 275.63Z" fill="#3B3B3B"/>
<path d="M393.94 286.97L394.15 287L393.49 287.19L393.94 286.97Z" fill="#3B3B3B"/>
<path d="M370.91 296.15C370.99 296.09 371.07 296.01 371.16 295.98C371.38 295.9 371.67 295.81 371.8 295.78C371.87 295.77 371.66 295.88 371.58 295.94L370.91 296.15Z" fill="#3B3B3B"/>
<path d="M253.45 341.02C253.25 341.15 253.06 341.29 253.02 341.31C253.06 341.28 253.32 341.14 253.57 340.99L253.45 341.02Z" fill="#3B3B3B"/>
<path d="M500.72 269.9L501.43 269.95L500.62 269.99L500.72 269.9Z" fill="#3B3B3B"/>
<path d="M123.07 61.27L122.77 62.81C122.81 62.53 122.85 62.16 122.89 61.98C122.95 61.72 123.01 61.6 123.07 61.42V61.27Z" fill="#3B3B3B"/>
<path d="M115.5 91.38C115.49 91.61 115.48 91.85 115.48 91.9C115.49 91.84 115.52 91.55 115.56 91.27L115.5 91.38Z" fill="#3B3B3B"/>
<path d="M115.68 5.29995L115.19 3.69995L115.63 5.17995L115.68 5.29995Z" fill="#3B3B3B"/>
<path d="M309.93 324.91L309.37 325.12L309.68 324.92L309.93 324.91Z" fill="#3B3B3B"/>
<path d="M109.68 2.17004L110.14 2.92004C110.09 2.89004 110.07 2.94004 110 2.81004C109.9 2.62004 109.77 2.31004 109.66 2.04004L109.68 2.17004Z" fill="#3B3B3B"/>
<path d="M116.3 59.29L116.32 58.52L116.4 58.66L116.3 59.29Z" fill="#3B3B3B"/>
<path d="M449.35 264.73L449.25 264.74L449.35 264.73Z" fill="#3B3B3B"/>
<path d="M523.17 261.72L523.04 261.71L523.17 261.72Z" fill="#3B3B3B"/>
<path d="M53.4097 186.09L53.4897 185.99L53.4097 186.09Z" fill="#3B3B3B"/>
<path d="M13.9997 300.24L13.9697 300.14L13.9997 300.24Z" fill="#3B3B3B"/>
<path d="M20.71 312.93L20.75 313.02L20.71 312.93Z" fill="#3B3B3B"/>
<path d="M62 174.97L62.07 174.88L62 174.97Z" fill="#3B3B3B"/>
<path d="M33.48 207.71L33.56 207.62L33.48 207.71Z" fill="#3B3B3B"/>
<path d="M33.5699 207.62L33.4199 207.29L33.3599 207.4L33.4799 207.71L33.5699 207.62Z" fill="#3B3B3B"/>
<path d="M318.23 314.26L318.34 314.2L318.23 314.26Z" fill="#3B3B3B"/>
<path d="M119.95 81.91L119.97 81.77L119.95 81.91Z" fill="#3B3B3B"/>
<path d="M165.04 363.51L165.17 363.48L165.04 363.51Z" fill="#3B3B3B"/>
<path d="M123.81 52.52L123.8 52.37L123.81 52.52Z" fill="#3B3B3B"/>
<path d="M123.06 61.42L123.14 61.08L123.07 61.27L123.06 61.42Z" fill="#3B3B3B"/>
<path d="M123.8 52.3699L123.52 52.1799L123.5 52.3099L123.81 52.5199L123.8 52.3699Z" fill="#3B3B3B"/>
<path d="M121.5 70.0799L121.51 69.9399L121.5 70.0799Z" fill="#3B3B3B"/>
<path d="M115.63 5.17993L115.69 5.29993L115.63 5.17993Z" fill="#3B3B3B"/>
<path d="M118.03 53.08L118.05 52.97L118.03 53.08Z" fill="#3B3B3B"/>
<path d="M112.65 8.35999L112.66 8.45999L112.65 8.35999Z" fill="#3B3B3B"/>
<path d="M118.05 52.97L118.03 53.08L118.05 52.97Z" fill="#3B3B3B"/>
<path d="M109.66 2.02998L109.48 1.72998L109.68 2.16998L109.66 2.02998Z" fill="#3B3B3B"/>
</g>
<defs>
<clipPath id="clip0">
<rect width="569.92" height="365.86" fill="white"/>
</clipPath>
</defs>
</svg>
